<?xml version="1.0" encoding="UTF-8"?>
<svg id="Layer_1" xmlns="http://www.w3.org/2000/svg" version="1.1" viewBox="0 0 961.94 225.83">
  <!-- Generator: Adobe Illustrator 29.2.0, SVG Export Plug-In . SVG Version: 2.1.0 Build 108)  -->
  <defs>
    <style>
      .st0 {
        fill: #fff;
      }
    </style>
  </defs>
  <path class="st0" d="M225.97,112.83c-.09,62.88-50.71,113.43-113.79,113.01C49.83,225.41,1.12,175.24.02,114.91-1.14,50.97,51.99-2.23,117.11.07c58.63,2.07,108.82,50.26,108.86,112.75ZM129.34,98.81c4.03,6,8.07,11.42,13.28,15.74,3.7,3.07,6.33,6.57,8.42,10.93,6.58,13.74,12.55,27.71,17.57,42.08,2.12,6.06,4.75,11.99,5.24,18.52.4,5.38.2,5.64-5.04,6.28-.5.06-.99.15-1.49.22-8.24,1.08-15.78-.66-22.47-5.68-1.39-1.04-2.28-2.27-1.23-4.06,2.57-4.4,2.99-9.34,3.58-14.23,1.34-11.1-1.6-21.56-4.79-31.99-.7-2.3-2.43-2.19-4.25-1.89-2.72.45-5.42,1.17-8.15,1.35-13.53.91-24.7-3.24-32.03-15.35-2.57-4.24-4.65-8.67-6.17-13.4-1.08-3.37-3.22-4.98-6.13-5.04-1.48-.03-2.78.56-4.03,1.24-1.6.87-2.09.1-2.24-1.36-.23-2.27.8-3.85,2.67-4.99,3.18-1.93,6.74-2.42,10.35-2.58,6.64-.29,13.18.68,19.72,1.66,1.01.15,2.6.78,2.86-.97.22-1.47-1.02-1.87-2.27-2.11-4.19-.81-8.37-1.63-12.54-2.54-7.13-1.54-14.04-1.47-20.73,1.95-3.18,1.63-4.95,4.18-4.98,7.49-.05,5.25,1.35,10.25,4.12,14.78.34.55.66,1.32,1.42,1.29.84-.03.87-.92,1.11-1.49.45-1.08.79-2.2,1.18-3.31.49-1.37,1.04-2.86,2.71-2.94,1.74-.08,2.57,1.33,3.19,2.75,1.42,3.3,2.81,6.61,4.22,9.92,6.29,14.7,20.28,22.22,35.99,19.26,2.95-.55,5.87-1.33,8.73-2.24,1.85-.59,2.43.18,2.72,1.74,1.36,7.31,2.79,14.64,3.03,22.08.21,6.45-.92,12.63-5.29,17.85-2.75,3.3-2.23,6.97.97,10.01,3.53,3.36,8,4.8,12.5,6.08,8.39,2.39,16.95,2.89,25.59,1.69,4.75-.66,6.2-2.93,4.81-7.41-.55-1.75-1.13-3.49-1.61-5.26-2.82-10.33-6.21-20.46-10.29-30.37-4.24-10.29-9.02-20.31-14.64-29.93-.28-.48-.84-.96-.28-1.55.44-.47.93-.03,1.39.09,1.61.43,3.21.94,4.84,1.29,7.48,1.56,15.42-1.44,18.13-7.1,2.53-5.27,3.81-10.85,3.17-16.78-1.79-16.74-8.98-30.85-21.08-42.39-8.54-8.15-18.07-15.06-28.34-20.91-1.01-.58-1.89-1.59-3.44-1.52.53,1.91,2.07,2.62,3.21,3.61,12.88,11.22,25.46,22.74,34.73,37.3,5.07,7.96,8.48,16.53,7.77,26.23-.78,10.69-8.7,15.78-17.81,12.16-7.78-3.09-14.63-7.65-21.28-12.6-1.9-1.41-3.67-3.07-6.62-3.66ZM67.36,69.67c.54-.33,1.51.42,1.75-.44.18-.67-.58-1.16-1.08-1.58-4.93-4.12-9.9-8.2-14.82-12.33-2.55-2.14-5.46-3.89-7.42-6.69-.5-.71-1.59-1.44-.84-2.36.7-.86,1.76-.1,2.55.22,2.87,1.16,5.72,2.37,8.52,3.67,14.19,6.58,27.3,14.82,38.8,25.49,4.41,4.09,8.58,8.41,12.31,13.14.69.87,1.57,1.65,2.75.62,1.01-.88.62-1.76-.04-2.64-1.76-2.33-3.42-4.75-5.28-6.99-12.52-15.05-28-26.2-45.76-34.23-5.73-2.59-11.81-4.23-18.15-4.55-3.24-.16-4.23,1.33-3.09,4.39.53,1.43,1.37,2.65,2.37,3.8,1.78,2.03,4.04,3.5,6.07,5.22.6.51,1.86,1.25.02,1.83-2.26.72-2.05,2.2-1.09,3.73,1.02,1.61,2,3.27,3.41,4.63,2.19,2.12,4.3,4.33,6.48,6.54-.76.31-1.23-.2-1.79-.28-1.35-.19-2.7-.34-3.66.93-.91,1.21-.35,2.39.18,3.54.76,1.63,2.17,2.74,3.35,4.03,6.11,6.7,13.38,11.51,22.31,13.59.9.21,2.11.79,2.61-.49.54-1.38-.58-1.87-1.66-2.27-3.69-1.39-7.18-3.21-10.56-5.2-3.5-2.05-6.5-4.76-9.13-7.9,6.9,2.98,12.98,7.47,19.81,10.5.12-.18.24-.36.37-.54-4.32-3.19-8.64-6.39-12.96-9.58.73-.29,1.2-.17,1.66,0,1.12.42,1.99.09,2.58-.89.69-1.17-.12-1.88-.93-2.51-.86-.66-1.84-1.18-2.64-1.9-1.23-1.1-3.04-1.66-3.71-3.78,2.27.42,3.64,1.96,5.38,2.74,1.06.48,2.46,2.02,3.08,1.24.9-1.13-1.53-1.29-1.73-2.71ZM107.17,50.15c-1.69-3.44-4.06-5.33-6.21-7.37-6.1-5.8-12.73-10.86-20.96-13.26-5.05-1.47-10.19-2.8-15.51-1.23-1.7.5-3.43,1.07-3.65,3.26-.21,2.12,1.23,3.08,2.8,4.03,4.85,2.93,9.94,5.42,14.68,8.57,11.85,7.87,21.6,17.69,28.95,29.89,5.74,9.53,9.51,19.84,12.48,30.49.33,1.19.36,2.58,1.76,3.24-.79-32.79-18.93-54.91-44.7-72.54,10.26,4.19,19.93,9.49,30.35,14.92ZM140.77,62.53c-.11-.3-.18-.62-.33-.88-5.36-9.18-11.31-17.88-20.22-24.07-4.26-2.96-8.56-5.89-13.69-7.15-2.2-.54-2.71.1-1.91,2.14.3.77.62,1.62,1.18,2.19,2.93,2.94,5.94,5.81,8.94,8.7.97.93,1.98,1.83,3.16,2.91.05-1.28-.74-1.58-1.19-2.14-1.76-2.17-3.51-4.36-5.23-6.57-.33-.43-.85-.99-.22-1.53.47-.39.99.02,1.36.29,1.88,1.36,3.71,2.78,5.59,4.14,5.6,4.07,11.09,8.24,15.55,13.65,2.3,2.79,4.04,6.02,7.03,8.31Z"/>
  <g>
    <path class="st0" d="M298.66,51.33h24.05v103.42h35.05v22.94h-59.1V51.33Z"/>
    <path class="st0" d="M382.62,45.75c4.11,0,7.64,1.49,10.58,4.47,2.94,2.98,4.41,6.59,4.41,10.83s-1.45,7.74-4.37,10.69c-2.91,2.95-6.4,4.42-10.45,4.42s-7.73-1.5-10.67-4.51c-2.94-3.01-4.41-6.66-4.41-10.95s1.45-7.64,4.37-10.56,6.42-4.38,10.54-4.38ZM370.9,84.23h23.45v93.45h-23.45v-93.45Z"/>
    <path class="st0" d="M438.92,48.15v46.38c4.24-4.24,8.82-7.41,13.74-9.53,4.93-2.12,10.19-3.18,15.8-3.18,12.2,0,22.56,4.61,31.1,13.83,8.53,9.22,12.8,21.04,12.8,35.48s-4.41,25.55-13.23,34.91c-8.82,9.36-19.27,14.04-31.35,14.04-5.38,0-10.39-.96-15.03-2.88-4.64-1.92-9.25-5.05-13.83-9.4v9.88h-23.28V48.15h23.28ZM463.58,103.47c-7.39,0-13.52,2.52-18.38,7.56-4.87,5.04-7.3,11.63-7.3,19.75s2.43,15.02,7.3,20.14c4.87,5.13,10.99,7.69,18.38,7.69s13.18-2.61,18.08-7.82c4.89-5.21,7.34-11.85,7.34-19.93s-2.4-14.59-7.22-19.71c-4.81-5.12-10.88-7.69-18.21-7.69Z"/>
    <path class="st0" d="M625.4,137.74h-75.33c1.09,6.64,4,11.93,8.72,15.85,4.72,3.92,10.75,5.89,18.08,5.89,8.76,0,16.29-3.07,22.59-9.19l19.76,9.28c-4.93,6.99-10.82,12.16-17.7,15.5-6.87,3.35-15.03,5.02-24.48,5.02-14.66,0-26.6-4.62-35.82-13.87-9.22-9.25-13.83-20.83-13.83-34.74s4.59-26.1,13.79-35.52c9.19-9.42,20.71-14.13,34.57-14.13,14.72,0,26.68,4.71,35.9,14.13,9.22,9.42,13.83,21.86,13.83,37.32l-.09,4.47ZM601.95,119.27c-1.55-5.21-4.6-9.45-9.16-12.71-4.56-3.26-9.85-4.89-15.88-4.89-6.54,0-12.27,1.83-17.21,5.5-3.1,2.29-5.97,6.33-8.6,12.11h50.85Z"/>
    <path class="st0" d="M638.89,84.23h20.1v11.77c2.17-4.64,5.07-8.16,8.67-10.56,3.61-2.4,7.56-3.61,11.85-3.61,3.03,0,6.21.8,9.54,2.4l-7.3,20.19c-2.75-1.38-5.01-2.06-6.79-2.06-3.61,0-6.65,2.23-9.15,6.7-2.49,4.47-3.74,13.23-3.74,26.28l.09,4.55v37.79h-23.28v-93.45Z"/>
    <path class="st0" d="M703.48,49.78h23.45v34.44h13.91v20.19h-13.91v73.27h-23.45v-73.27h-12.02v-20.19h12.02v-34.44Z"/>
    <path class="st0" d="M822.36,84.23h23.45v93.45h-23.45v-9.88c-4.58,4.35-9.17,7.49-13.77,9.4-4.6,1.92-9.59,2.88-14.97,2.88-12.07,0-22.51-4.68-31.31-14.04-8.81-9.36-13.21-21-13.21-34.91s4.26-26.26,12.78-35.48c8.52-9.22,18.87-13.83,31.06-13.83,5.61,0,10.87,1.06,15.78,3.18,4.92,2.12,9.47,5.3,13.64,9.53v-10.31ZM797.71,103.47c-7.25,0-13.27,2.56-18.06,7.69-4.79,5.13-7.19,11.7-7.19,19.71s2.44,14.72,7.32,19.93c4.88,5.21,10.89,7.82,18.02,7.82s13.47-2.56,18.32-7.69c4.85-5.12,7.28-11.84,7.28-20.14s-2.42-14.72-7.28-19.75c-4.85-5.04-10.98-7.56-18.4-7.56Z"/>
    <path class="st0" d="M938.49,48.15h23.45v129.53h-23.45v-9.88c-4.58,4.35-9.17,7.49-13.77,9.4-4.6,1.92-9.59,2.88-14.97,2.88-12.07,0-22.51-4.68-31.31-14.04-8.81-9.36-13.21-21-13.21-34.91s4.26-26.26,12.78-35.48c8.52-9.22,18.87-13.83,31.06-13.83,5.61,0,10.87,1.06,15.78,3.18s9.47,5.3,13.64,9.53v-46.38ZM913.84,103.47c-7.25,0-13.27,2.56-18.06,7.69-4.79,5.13-7.19,11.7-7.19,19.71s2.44,14.72,7.32,19.93c4.88,5.21,10.89,7.82,18.02,7.82s13.47-2.56,18.32-7.69c4.85-5.12,7.28-11.84,7.28-20.14s-2.42-14.72-7.28-19.75c-4.85-5.04-10.98-7.56-18.4-7.56Z"/>
  </g>
</svg>